<svg width="18" height="18" viewBox="0 0 18 18" fill="none" xmlns="http://www.w3.org/2000/svg">
<path d="M6.62695 0.0078125C9.95718 0.176558 12.6055 2.93058 12.6055 6.30273L12.5977 6.62695C12.5132 8.29288 11.7815 9.78774 10.6494 10.8662L17.2607 17.4775L16.7383 18L10.082 11.3438C9.0287 12.1346 7.72124 12.6055 6.30273 12.6055L5.97852 12.5977C2.75566 12.4344 0.171117 9.8498 0.0078125 6.62695L0 6.30273C0 2.82184 2.82184 0 6.30273 0L6.62695 0.0078125ZM6.30273 1C3.37412 1 1 3.37412 1 6.30273C1.00001 9.23134 3.37413 11.6055 6.30273 11.6055C9.23133 11.6055 11.6055 9.23133 11.6055 6.30273C11.6055 3.37413 9.23134 1.00001 6.30273 1Z" fill="#240309"/>
</svg>
