<svg width="22" height="22" viewBox="0 0 22 22" fill="none" xmlns="http://www.w3.org/2000/svg">
<path d="M1 9C1.78 5.184 4.67 2.13 8.406 1.09C8.72 1.003 8.876 0.959 8.961 1.052C9.046 1.146 8.983 1.3 8.859 1.61L8 3.5M13 1C16.816 1.78 19.87 4.67 20.91 8.406C20.997 8.72 21.041 8.876 20.948 8.961C20.854 9.046 20.7 8.983 20.39 8.859L18.5 8M21 13C20.22 16.816 17.33 19.87 13.594 20.91C13.28 20.997 13.124 21.041 13.039 20.948C12.954 20.854 13.017 20.7 13.141 20.39L14 18.5M9 21C5.184 20.22 2.13 17.33 1.09 13.594C1.003 13.28 0.959 13.124 1.052 13.039C1.146 12.954 1.3 13.017 1.61 13.141L3.5 14M11 10.099C9.687 10.999 8.099 12.779 7.5 15.5M8.375 13.104C6.303 8.31 10.483 6.693 13.664 6.513C14.048 6.491 14.24 6.48 14.377 6.62C14.515 6.76 14.507 6.96 14.491 7.358C14.36 10.674 13.038 15.236 8.375 13.104Z" stroke="black" stroke-width="1.5" stroke-linecap="round" stroke-linejoin="round"/>
</svg>
