<svg width="24" height="22" viewBox="0 0 24 22" fill="none" xmlns="http://www.w3.org/2000/svg">
<path d="M2.00161 7.41602V10.1892C2.00161 11.2608 2.87031 12.1295 3.94191 12.1295C4.68905 12.1295 5.36981 11.7006 5.69224 11.0266L5.7181 10.9725C6.05634 10.2655 6.77048 9.81548 7.55424 9.81548H10.5992C12.256 9.81548 13.5992 11.1586 13.5992 12.8155V13.5924C13.5992 15.2492 12.256 16.5924 10.5992 16.5924H3.20386C1.9867 16.5924 1 17.5791 1 18.7962C1 20.0134 1.98671 21.0001 3.20387 21.0001H20.937C22.1541 21.0001 23.1408 20.0134 23.1408 18.7962V17.6203C23.1408 17.0526 22.6806 16.5924 22.1129 16.5924C21.5451 16.5924 21.0849 16.1321 21.0849 15.5644V7.41602C21.0849 5.75916 19.7418 4.41602 18.0849 4.41602H5.00161C3.34475 4.41602 2.00161 5.75916 2.00161 7.41602Z" stroke="black" stroke-width="1.5"/>
<path d="M3.01831 14.5021C3.01831 14.9163 3.3541 15.2521 3.76831 15.2521C4.18252 15.2521 4.51831 14.9163 4.51831 14.5021L3.01831 14.5021ZM3.01831 12.5732L3.01831 14.5021L4.51831 14.5021L4.51831 12.5732L3.01831 12.5732Z" fill="black"/>
<path d="M21.3008 6.78662V6.78662C22.32 6.78662 23.1463 7.6129 23.1463 8.63216V10.7277C23.1463 11.747 22.32 12.5732 21.3008 12.5732V12.5732" stroke="black" stroke-width="1.5"/>
<path d="M4.33301 2.76318C4.33301 2.34897 3.99722 2.01318 3.58301 2.01318C3.16879 2.01318 2.83301 2.34897 2.83301 2.76318H4.33301ZM2.83301 2.76318V4.52627H4.33301V2.76318H2.83301Z" fill="black"/>
<path d="M17.9866 1C17.9866 0.585786 17.6508 0.25 17.2366 0.25C16.8224 0.25 16.4866 0.585786 16.4866 1H17.9866ZM16.4866 1V4.41599H17.9866V1H16.4866Z" fill="black"/>
<path d="M17.6099 8.50098C18.1839 8.50107 18.7055 8.9972 18.7056 9.67969C18.7056 10.3623 18.184 10.8583 17.6099 10.8584C17.0357 10.8584 16.5142 10.3623 16.5142 9.67969C16.5142 8.99714 17.0357 8.50098 17.6099 8.50098Z" stroke="black" stroke-width="1.5"/>
<path d="M17.6099 14.2876C18.1839 14.2877 18.7055 14.7838 18.7056 15.4663C18.7056 16.1489 18.184 16.6449 17.6099 16.645C17.0357 16.645 16.5142 16.1489 16.5142 15.4663C16.5142 14.7838 17.0357 14.2876 17.6099 14.2876Z" stroke="black" stroke-width="1.5"/>
</svg>
