<svg width="17" height="18" viewBox="0 0 17 18" fill="none" xmlns="http://www.w3.org/2000/svg">
<path d="M4.4541 4.73535H12.4854C13.1975 4.73538 13.8119 5.23603 13.9551 5.93359L15.958 15.6982C16.1488 16.6285 15.4379 17.5 14.4883 17.5H2.45117C1.50159 17.5 0.790632 16.6285 0.981445 15.6982L2.98438 5.93359C3.12761 5.23603 3.74196 4.73535 4.4541 4.73535Z" stroke="#240309"/>
<path d="M9.85083 0.0107422C10.8592 0.113268 11.6458 0.964545 11.6458 2V8.4707H10.6458V2C10.6458 1.44772 10.198 1 9.64575 1H7.29321C6.74093 1 6.29321 1.44771 6.29321 2V8.4707H5.29321V2C5.29321 0.96435 6.08044 0.113005 7.08911 0.0107422L7.29321 0H9.64575L9.85083 0.0107422Z" fill="#240309"/>
</svg>
