<svg width="45" height="55" viewBox="0 0 45 55" fill="none" xmlns="http://www.w3.org/2000/svg">
<path d="M22.1279 10.1775C34.1354 10.1776 43.8691 19.9122 43.8691 31.9197C43.869 43.9271 34.1353 53.6608 22.1279 53.6609C10.1204 53.6609 0.385869 43.9271 0.385742 31.9197C0.385742 19.9121 10.1204 10.1775 22.1279 10.1775Z" stroke="#9C8E95" stroke-width="0.772102"/>
<path d="M22.1277 13.692C32.1943 13.692 40.3552 21.8529 40.3552 31.9195C40.3552 41.9861 32.1943 50.147 22.1277 50.147C12.0611 50.147 3.90016 41.9861 3.90016 31.9195C3.90017 21.8529 12.0611 13.692 22.1277 13.692Z" stroke="#9C8E95" stroke-width="0.772102"/>
<path d="M22.1279 29.702C23.3523 29.7021 24.3447 30.6953 24.3447 31.9197C24.3446 33.1441 23.3522 34.1364 22.1279 34.1365C20.9035 34.1365 19.9103 33.1441 19.9102 31.9197C19.9102 30.6952 20.9034 29.702 22.1279 29.702Z" stroke="#9C8E95" stroke-width="0.772102"/>
<path fill-rule="evenodd" clip-rule="evenodd" d="M19.0509 19.0012C13.202 20.3891 8.85109 25.6462 8.85109 31.9195C8.85109 39.252 14.7952 45.1961 22.1277 45.1961C23.2819 45.1961 24.4016 45.0488 25.4692 44.772L25.2826 44.0226C24.2748 44.2846 23.2175 44.424 22.1277 44.424C15.2216 44.424 9.62319 38.8255 9.62319 31.9195C9.62319 26.0082 13.7249 21.055 19.2375 19.7507L19.0509 19.0012Z" fill="#9C8E95"/>
<path d="M23.4611 33.7943L31.7581 41.7382" stroke="#9C8E95" stroke-width="0.772102"/>
<path d="M22.2254 29.3809V18.5242" stroke="#9C8E95" stroke-width="0.772102"/>
<path fill-rule="evenodd" clip-rule="evenodd" d="M39.9837 11.0326L41.9549 13.0038C42.2564 13.3053 42.2564 13.7942 41.9549 14.0957L38.5885 17.4621C38.5704 17.4802 38.5517 17.4972 38.5324 17.5131L39.0796 18.0603C39.0982 18.0435 39.1165 18.026 39.1345 18.0081L42.5008 14.6417C43.1039 14.0386 43.1039 13.0609 42.5008 12.4579L40.5296 10.4866C39.9266 9.8836 38.9488 9.8836 38.3458 10.4867L34.9794 13.8531C34.9615 13.871 34.944 13.8893 34.9272 13.9079L35.4744 14.4551C35.4903 14.4358 35.5073 14.4171 35.5254 14.399L38.8918 11.0326C39.1933 10.7311 39.6822 10.7311 39.9837 11.0326Z" fill="#9C8E95"/>
<rect x="14.6021" y="0.386051" width="14.6522" height="5.83832" rx="1.15815" stroke="#9C8E95" stroke-width="0.772102"/>
<path d="M25.2334 6.24316V10.6501" stroke="#9C8E95" stroke-width="0.772102"/>
<path d="M19.3575 6.24316V10.2829" stroke="#9C8E95" stroke-width="0.772102"/>
</svg>
